# xmcd
#
# Track frame offsets:
#	150
#	18198
#	29671
#	46878
#	61920
#	80250
#	88543
#	109074
#	125404
#	147863
#	162017
#	178644
#	197648
#
# Disc length: 2876 seconds
#
# Revision: 2
# Processed by: cddbd v1.5.2PL0 Copyright (c) Steve Scherf et al.
# Submitted via: EasyCDDAExtractor 10.2.0.1
#
DISCID=a00b3a0d
DTITLE=הבנות נחמה
DYEAR=2007
DGENRE=Blues
TTITLE0=Lovers
TTITLE1=בואי
TTITLE2=So Far - להיות
TTITLE3=Ever
TTITLE4=יה
TTITLE5=Flowers
TTITLE6=זה מה שיש
TTITLE7=No War
TTITLE8=מאה אחוז אור
TTITLE9=Lies
TTITLE10=הכל כשורה
TTITLE11=I Love You
TTITLE12=אין זה משנה
EXTD=
EXTT0=
EXTT1=
EXTT2=
EXTT3=
EXTT4=
EXTT5=
EXTT6=
EXTT7=
EXTT8=
EXTT9=
EXTT10=
EXTT11=
EXTT12=
PLAYORDER=
